<?xml version="1.0" encoding="iso-8859-1"?>
<!-- Uploaded to: SVG Repo, www.svgrepo.com, Generator: SVG Repo Mixer Tools -->
<svg fill="#000000" height="800px" width="800px" version="1.1" id="Layer_1" xmlns="http://www.w3.org/2000/svg" xmlns:xlink="http://www.w3.org/1999/xlink" 
	 viewBox="0 0 512 512" xml:space="preserve">
<g>
	<g>
		<path d="M436.177,125.323c2.616-2.616,3.397-6.545,1.982-9.964c-1.415-3.42-4.75-5.643-8.446-5.643h-66.879l65.281-95.41
			c2.853-4.17,1.786-9.857-2.384-12.705c-4.156-2.857-9.853-1.786-12.705,2.384l-72.342,105.732H82.287
			c-3.696,0-7.031,2.223-8.446,5.643c-1.415,3.419-0.634,7.348,1.982,9.964l171.035,171.035v170.16
			c-37.693,1.73-73.142,14.123-73.142,36.339c0,5.053,4.094,9.143,9.143,9.143h146.285c5.049,0,9.143-4.089,9.143-9.143
			c0-22.216-35.45-34.609-73.142-36.339v-170.16L436.177,125.323z M350.323,128.002h57.319l-45.714,45.714h-42.883L350.323,128.002z
			 M104.358,128.002h223.815l-31.279,45.714H150.072L104.358,128.002z M308.54,493.714H203.46
			c10.571-4.732,28.303-9.143,52.54-9.143S297.968,488.982,308.54,493.714z M261.357,274.287h-10.714l-82.285-82.285h175.285
			L261.357,274.287z"/>
	</g>
</g>
</svg>